<?xml version="1.0" standalone="no"?>
<!DOCTYPE svg PUBLIC "-//W3C//DTD SVG 20010904//EN"
 "http://www.w3.org/TR/2001/REC-SVG-20010904/DTD/svg10.dtd">
<svg version="1.0" xmlns="http://www.w3.org/2000/svg"
 width="880.000000pt" height="1226.000000pt" viewBox="0 0 880.000000 1226.000000"
 preserveAspectRatio="xMidYMid meet">
<metadata>
Created by potrace 1.16, written by Peter Selinger 2001-2019
</metadata>
<g transform="translate(0.000000,1226.000000) scale(0.100000,-0.100000)"
fill="#000000" stroke="none">
<path d="M4180 11853 c-391 -30 -814 -179 -1165 -410 -278 -183 -540 -450
-720 -734 -199 -313 -326 -661 -377 -1029 -17 -124 -17 -516 0 -640 51 -373
182 -723 390 -1045 124 -193 270 -354 517 -570 179 -157 297 -280 330 -344 14
-29 37 -93 50 -144 86 -323 102 -728 40 -1032 -65 -322 -173 -537 -406 -810
-132 -156 -184 -225 -224 -305 -46 -91 -91 -239 -95 -312 0 -14 -32 -38 -51
-38 -10 0 -28 9 -39 20 -41 41 -16 90 51 99 41 6 44 8 51 45 8 36 6 42 -22 67
-16 15 -30 34 -30 41 0 28 31 58 60 58 19 0 35 9 49 26 25 31 27 64 6 64 -24
0 -40 45 -27 75 13 28 57 44 75 26 32 -32 75 10 56 53 -26 56 20 103 76 78 19
-9 28 -7 47 8 l23 18 -22 24 c-30 32 -29 62 3 87 25 20 28 20 55 4 23 -14 30
-14 43 -4 20 17 20 45 1 61 -21 18 -19 56 6 81 20 20 32 21 71 4 13 -5 21 0
30 19 10 24 9 28 -10 42 -26 18 -30 65 -7 84 8 6 31 10 52 8 36 -3 38 -1 52
39 14 38 13 44 -2 61 -33 37 -21 72 35 95 30 13 38 22 44 53 5 28 3 39 -10 46
-8 5 -21 18 -27 29 -13 26 8 62 48 81 22 10 29 21 31 50 3 30 -1 38 -18 43
-44 14 -45 75 -1 102 28 18 51 42 51 54 0 4 -16 16 -35 28 -51 30 -48 79 8
100 24 9 27 16 27 53 0 71 -20 311 -28 343 l-8 29 -28 -48 c-36 -61 -135 -162
-206 -209 -53 -36 -54 -37 -24 -37 48 0 130 28 162 55 36 31 48 32 28 4 -25
-36 -113 -97 -168 -115 l-53 -18 32 -9 c32 -9 51 -6 183 29 42 11 -66 -92
-128 -123 -43 -21 -62 -25 -112 -21 -33 2 -60 1 -60 -2 0 -4 24 -20 53 -36 43
-23 63 -28 115 -27 34 0 62 -1 62 -3 0 -2 -18 -13 -41 -24 -58 -30 -125 -36
-193 -16 -32 10 -61 15 -64 12 -3 -3 19 -30 49 -60 62 -62 114 -81 190 -71 83
12 55 -23 -44 -55 -55 -17 -118 -5 -177 35 -27 18 -50 29 -50 24 0 -20 42 -91
77 -130 50 -55 87 -72 156 -72 31 1 57 -3 57 -7 0 -4 -25 -27 -55 -50 -87 -67
-177 -68 -261 -4 -49 38 -49 37 -23 -32 14 -39 73 -97 117 -117 24 -10 42 -20
40 -22 -2 -2 -48 -21 -104 -43 -55 -22 -118 -49 -140 -60 l-39 -21 75 6 c41 3
73 3 70 1 -3 -3 -57 -20 -119 -37 -122 -34 -204 -72 -261 -123 -32 -28 -33
-30 -10 -24 162 42 337 86 345 86 5 0 -47 -28 -115 -63 -189 -94 -232 -126
-284 -210 -64 -102 -166 -328 -148 -327 4 1 34 37 67 81 33 45 89 109 125 143
62 58 185 134 197 122 3 -3 -25 -40 -63 -82 -141 -156 -244 -280 -274 -331
-34 -56 -63 -129 -58 -145 2 -6 51 42 108 106 98 111 135 136 135 94 0 -9 -48
-71 -108 -138 -133 -150 -156 -184 -166 -249 -4 -28 -7 -51 -5 -51 1 0 25 31
54 70 50 68 153 170 171 170 5 0 -14 -28 -42 -62 -110 -136 -189 -298 -189
-388 0 -104 44 -390 60 -390 4 0 10 35 13 78 8 96 48 239 89 312 40 72 119
183 125 176 3 -2 -13 -52 -36 -111 -52 -134 -124 -405 -107 -405 2 0 12 21 22
47 52 145 140 316 190 370 20 23 17 13 -15 -47 -83 -155 -150 -373 -138 -447
7 -43 37 -123 46 -123 4 0 18 33 30 72 40 123 83 239 88 234 2 -2 -5 -50 -16
-105 -12 -55 -26 -155 -31 -221 l-10 -121 46 -82 c61 -107 155 -245 192 -280
29 -27 31 -28 58 -13 60 32 60 30 12 92 -24 33 -54 76 -66 98 -24 40 -53 106
-48 106 2 0 19 -24 38 -52 20 -29 62 -81 93 -116 l58 -63 33 32 c19 18 48 61
66 95 l33 63 -32 98 c-17 54 -35 113 -38 132 -4 18 -29 84 -55 145 -73 170
-97 287 -115 556 -4 52 -4 92 -1 89 4 -4 16 -59 27 -124 37 -219 92 -416 129
-464 l18 -25 7 65 c6 57 3 79 -25 168 -48 157 -70 286 -69 409 1 153 12 164
27 25 19 -178 74 -443 92 -443 4 0 15 29 25 65 15 58 16 74 4 152 -16 103 -17
495 -2 563 l10 45 6 -45 c3 -25 11 -112 17 -195 11 -141 33 -291 45 -303 3 -3
10 -1 17 6 8 8 8 43 -1 139 -13 151 -14 282 -2 302 6 10 11 -5 15 -45 17 -156
28 -248 33 -261 4 -10 13 -2 29 24 20 33 23 51 23 133 0 91 -11 292 -24 422
l-6 63 21 -45 c33 -69 62 -194 74 -320 l11 -115 29 38 29 38 -6 127 c-6 124
-35 280 -71 380 -8 23 -11 42 -6 42 31 0 93 -205 111 -364 18 -165 13 -156 64
-106 44 44 45 44 39 99 -16 157 -48 291 -122 501 -3 8 9 2 27 -15 61 -57 160
-298 161 -392 0 -13 4 -23 10 -23 16 0 80 103 80 130 0 26 -51 138 -92 200
-15 23 -17 31 -6 22 17 -14 53 -67 103 -156 l28 -50 18 45 c23 56 23 92 2 132
-20 39 -123 149 -178 190 -31 23 -35 28 -15 22 51 -15 125 -61 181 -113 32
-29 60 -49 62 -45 7 11 38 175 34 179 -1 2 -45 15 -97 29 -149 42 -153 43 -95
44 28 0 77 -6 110 -14 82 -20 85 -19 85 13 0 59 -29 130 -66 160 l-35 29 25 7
c19 5 26 13 26 31 0 14 -2 25 -5 25 -2 0 -39 -22 -81 -50 -79 -51 -166 -84
-254 -96 l-51 -7 -41 -80 c-87 -174 -179 -306 -351 -501 -150 -169 -195 -257
-285 -556 -10 -34 -10 -34 -5 10 9 70 61 227 105 315 48 96 104 176 191 272
217 239 317 401 397 642 86 257 119 574 90 851 -5 47 -12 128 -16 180 l-6 95
44 60 c43 58 98 109 144 133 16 8 53 2 175 -28 153 -39 286 -67 429 -90 123
-20 225 -65 277 -121 34 -37 66 -109 135 -299 60 -167 63 -179 63 -265 0 -84
-4 -101 -57 -250 -78 -217 -110 -325 -147 -490 -80 -364 -111 -581 -118 -850
-8 -324 25 -523 132 -795 54 -139 95 -271 95 -306 0 -33 -17 2 -52 110 l-32
98 -73 34 c-86 39 -92 56 -37 116 19 22 34 47 32 56 -2 10 -22 23 -48 32 -25
8 -51 19 -57 23 -22 14 -14 55 17 90 42 48 39 70 -15 107 -57 40 -62 69 -19
125 30 40 30 43 -6 91 -36 48 -37 69 -5 116 14 20 25 39 25 42 0 4 -14 6 -30
6 -37 0 -80 39 -80 73 0 36 35 67 75 67 l35 0 2 55 c0 30 1 61 2 68 1 7 -9 11
-23 9 -58 -6 -99 64 -66 115 15 22 22 25 61 20 49 -5 47 -8 58 86 6 46 5 47
-23 47 -32 0 -81 48 -81 79 0 29 43 61 82 61 32 0 38 5 57 40 25 48 25 50 7
50 -19 0 -66 57 -66 80 0 36 34 64 81 64 43 1 43 1 58 51 8 28 59 187 114 353
l98 304 -26 54 c-29 60 -75 100 -123 110 -34 7 -79 -15 -120 -59 l-23 -24 23
-7 c13 -3 36 -6 51 -6 69 0 118 -61 133 -164 8 -55 7 -55 -58 -4 -93 72 -217
79 -285 16 -31 -29 -29 -34 18 -42 78 -13 153 -67 190 -138 28 -55 23 -66 -14
-31 -68 65 -133 78 -238 47 -42 -12 -66 -28 -111 -75 -62 -62 -73 -86 -35 -75
141 41 183 42 255 9 26 -12 92 -88 92 -105 0 -2 -48 -3 -107 -3 -100 0 -112
-2 -155 -27 -54 -32 -88 -81 -95 -139 l-6 -41 62 45 c72 53 125 66 185 44 22
-7 41 -18 43 -23 2 -5 -26 -24 -62 -42 -83 -44 -187 -152 -238 -250 -58 -109
-108 -335 -107 -482 l1 -45 33 60 c49 86 139 225 143 221 2 -2 -21 -66 -50
-142 -30 -76 -69 -182 -87 -234 l-33 -95 13 -120 c7 -66 15 -126 19 -133 4 -7
22 40 40 105 18 65 39 132 47 148 l14 30 -5 -30 c-2 -16 -16 -137 -31 -269
-25 -216 -26 -248 -16 -340 7 -55 15 -145 18 -200 l7 -98 33 -14 c18 -8 58
-14 88 -14 61 0 55 -7 75 85 l8 40 7 -36 c4 -20 6 -111 4 -202 l-3 -164 -37
-73 -38 -73 55 -167 c31 -92 66 -194 79 -226 l24 -59 12 30 c30 76 61 247 67
365 11 234 38 165 37 -95 0 -159 -13 -227 -66 -357 l-23 -56 20 -165 c11 -91
23 -168 26 -171 8 -9 75 149 92 219 8 33 19 96 23 140 l7 80 14 -45 c10 -31
13 -76 10 -145 -5 -117 -30 -194 -104 -314 -43 -71 -47 -82 -54 -166 -8 -105
-9 -108 -84 -245 -32 -58 -118 -231 -193 -385 -133 -276 -135 -281 -135 -350
-1 -113 45 -179 161 -232 61 -29 94 -25 139 15 27 24 33 39 47 121 18 99 71
279 88 296 7 7 8 3 5 -10 -3 -11 -11 -74 -17 -140 -6 -66 -12 -137 -14 -157
-4 -42 2 -45 42 -24 56 29 65 48 74 169 11 154 33 258 74 346 19 41 36 72 39
69 2 -2 -4 -49 -15 -104 -26 -133 -47 -361 -34 -374 12 -12 136 69 159 104 14
21 15 35 4 107 -14 99 -7 210 17 264 l18 40 7 -115 c6 -113 24 -200 41 -200 5
0 37 26 71 58 34 32 83 72 109 90 88 60 88 93 -2 175 -65 61 -122 90 -215 112
-69 17 -228 20 -255 5 -10 -5 -24 -26 -31 -47 -20 -63 -76 -149 -185 -284 -57
-72 -127 -164 -155 -205 -27 -41 -52 -74 -55 -74 -7 0 70 143 99 184 20 28 20
29 2 42 -10 8 -22 14 -26 14 -3 0 -12 13 -19 29 -26 65 41 123 102 88 32 -19
42 -16 58 14 9 15 7 21 -7 26 -35 12 -53 36 -53 70 0 65 65 94 118 52 25 -19
27 -20 40 -2 11 16 11 18 -5 21 -26 6 -63 43 -63 64 0 11 7 33 16 50 16 30 16
31 79 24 l63 -6 34 39 c18 21 71 112 117 200 83 158 105 191 118 177 8 -8 -42
-113 -94 -199 -19 -32 -34 -60 -32 -61 2 -2 27 -9 54 -14 45 -10 52 -9 67 9
21 24 53 109 80 209 16 59 22 117 25 268 4 138 2 192 -6 192 -7 0 -11 -21 -11
-52 0 -51 -31 -202 -44 -215 -13 -13 -13 6 1 137 11 108 12 159 3 255 -21 220
-76 494 -170 843 -28 101 -50 187 -50 190 1 4 15 -9 33 -30 67 -76 202 -163
347 -224 30 -13 46 -23 35 -24 -27 0 -181 37 -227 55 -45 18 -47 11 -18 -52
29 -65 106 -136 193 -178 43 -20 77 -40 77 -44 0 -5 -7 -14 -15 -21 -34 -28
-152 24 -234 103 -30 29 -51 43 -47 33 15 -43 100 -158 154 -208 55 -51 154
-108 186 -108 8 0 17 -4 20 -8 8 -13 -23 -52 -42 -52 -33 0 -138 58 -199 109
-35 29 -63 49 -63 44 0 -5 18 -68 39 -139 52 -172 68 -253 80 -405 18 -222
-11 -421 -90 -604 -40 -93 -39 -105 7 -105 32 0 145 -40 179 -63 46 -31 113
-97 152 -149 19 -27 39 -48 45 -48 16 0 3 159 -23 276 -30 139 -63 235 -122
354 -28 58 -54 110 -56 115 -9 24 85 -76 121 -129 78 -113 128 -259 143 -416
9 -89 12 -98 29 -74 23 34 25 66 15 198 -16 208 -65 404 -149 592 -17 37 -28
69 -26 71 9 9 99 -122 132 -192 56 -116 94 -314 94 -485 0 -33 4 -60 9 -60 4
0 25 37 46 82 35 76 37 88 32 148 -16 187 -95 372 -237 550 -112 140 -154 200
-141 200 15 0 183 -163 229 -222 59 -77 118 -178 152 -261 l31 -72 -5 70 c-9
137 -80 319 -227 580 -97 171 -125 234 -135 295 -7 42 -6 45 35 79 l43 37 -50
97 c-27 53 -48 97 -45 97 2 0 16 -6 31 -14 34 -18 75 -61 98 -106 l19 -35 3
31 c2 18 -10 69 -25 114 l-28 83 -135 39 c-74 22 -175 58 -225 82 -93 45 -215
128 -215 147 0 6 29 -5 65 -25 76 -42 82 -43 90 -16 3 11 24 42 46 70 24 30
37 55 33 63 -5 6 -47 66 -95 132 -86 119 -173 255 -164 255 3 0 46 -38 96 -84
101 -93 215 -159 307 -176 51 -9 112 -4 112 9 0 4 -24 15 -52 24 -79 25 -171
83 -262 167 -85 77 -246 245 -246 255 0 3 28 -14 62 -38 126 -90 265 -144 348
-135 33 3 30 6 -84 68 -95 52 -135 81 -198 144 -43 43 -77 81 -75 83 2 2 31
-13 63 -32 32 -20 82 -42 109 -50 62 -17 215 -30 215 -18 0 5 -39 28 -87 52
-82 40 -283 167 -283 178 0 3 37 3 83 1 103 -6 170 -32 287 -109 49 -32 90
-55 90 -50 0 18 -61 90 -138 162 -78 74 -197 145 -274 164 -48 12 -30 25 35
25 102 -1 206 -18 263 -44 59 -27 137 -95 179 -156 16 -22 30 -38 32 -36 11
10 -64 135 -110 184 -68 72 -132 112 -257 162 -56 22 -127 54 -158 71 -51 27
-53 29 -22 23 19 -3 105 -9 190 -13 164 -7 184 -12 258 -68 18 -14 53 -52 78
-86 57 -78 56 -53 -2 62 -51 102 -123 185 -193 220 -23 12 -77 29 -119 37 -90
17 -152 35 -152 43 0 3 84 6 188 6 185 0 273 9 256 25 -5 4 -67 24 -139 45
-133 38 -254 81 -267 93 -4 4 34 4 85 -1 113 -11 180 1 257 45 47 27 52 32 35
39 -11 4 -43 8 -70 8 -65 1 -154 24 -230 60 l-60 29 50 23 c64 29 174 32 223
6 45 -25 40 -7 -14 42 -61 57 -116 81 -186 81 -65 0 -74 11 -25 31 46 20 125
17 175 -5 23 -11 45 -16 48 -13 12 11 -61 99 -103 124 -34 19 -52 23 -100 21
l-58 -3 -27 -55 c-40 -81 -144 -403 -183 -564 -40 -166 -70 -336 -86 -496 -18
-162 -18 -736 -1 -820 22 -109 23 -116 7 -75 -9 22 -26 83 -38 135 -19 86 -21
124 -22 400 0 272 3 321 23 450 75 469 142 686 363 1172 184 406 280 584 361
673 81 89 252 165 307 136 46 -25 52 -59 61 -315 11 -310 34 -479 96 -730 81
-324 164 -485 432 -844 143 -191 169 -238 234 -427 l49 -140 -7 70 c-13 152
-67 263 -244 505 -206 282 -302 455 -370 666 -69 215 -116 496 -126 746 -6
149 -6 155 21 223 14 39 44 138 66 220 29 110 47 159 68 185 15 19 83 74 151
122 183 129 281 211 415 349 309 318 521 695 630 1123 60 237 70 321 70 621
-1 237 -3 286 -23 398 -94 526 -312 957 -670 1329 -144 149 -271 256 -424 358
-331 220 -747 367 -1128 400 -108 9 -368 11 -470 3z m585 -57 c434 -69 836
-246 1180 -521 93 -74 291 -271 368 -365 315 -389 509 -885 538 -1376 27 -461
-48 -853 -240 -1249 -130 -267 -282 -477 -502 -690 -442 -429 -995 -666 -1614
-691 -580 -24 -1171 169 -1625 532 -125 101 -345 325 -430 439 -254 342 -400
689 -471 1120 -19 117 -20 159 -16 415 4 275 5 290 36 435 163 757 629 1369
1300 1709 274 139 550 221 858 256 117 13 501 4 618 -14z m81 -4969 c7 -19
-43 -141 -121 -297 -60 -119 -85 -154 -85 -115 0 8 -29 92 -65 186 -36 94 -65
177 -65 184 0 15 30 24 85 26 22 0 76 6 120 13 109 18 125 18 131 3z m-338
-3489 c5 -7 15 -30 20 -50 9 -31 7 -42 -7 -60 -38 -47 -121 -14 -121 49 0 50
80 95 108 61z"/>
<path d="M4194 11771 c-31 -5 -57 -20 -98 -59 -81 -73 -143 -85 -197 -36 -14
12 -19 11 -40 -12 -28 -31 -93 -63 -127 -64 -13 0 -36 7 -52 15 -28 15 -29 14
-61 -27 -38 -47 -108 -83 -142 -72 -12 4 -35 16 -50 27 -28 19 -30 19 -68 2
-61 -28 -62 -33 -17 -112 l41 -72 36 16 c277 122 513 186 804 218 l57 6 0 90
c0 100 6 95 -86 80z"/>
<path d="M4510 11691 c0 -73 3 -91 14 -91 41 0 263 -34 368 -56 134 -28 310
-87 438 -146 l85 -39 39 43 c52 58 69 85 61 98 -8 13 -100 60 -117 60 -7 0
-35 -12 -63 -26 -40 -21 -59 -26 -87 -20 -48 9 -101 46 -108 76 -5 19 -12 24
-31 22 -13 -2 -48 -4 -78 -5 -50 -2 -55 0 -87 37 l-34 39 -42 -14 c-92 -30
-157 -9 -187 62 -15 36 -19 39 -56 39 -22 0 -57 3 -77 6 l-38 7 0 -92z"/>
<path d="M4330 11750 c-50 -50 5 -142 76 -128 9 1 26 15 37 30 52 69 -52 159
-113 98z"/>
<path d="M4210 11544 c-591 -54 -1154 -358 -1522 -820 -276 -347 -448 -791
-467 -1209 -9 -203 2 -437 28 -561 83 -401 238 -721 493 -1019 303 -354 702
-596 1163 -705 196 -46 266 -54 485 -54 278 0 488 32 715 111 468 163 857 465
1126 875 170 261 274 527 335 863 28 153 26 526 -4 690 -44 242 -94 400 -192
600 -315 643 -894 1077 -1610 1206 -103 18 -443 33 -550 23z m135 -81 c-9 -39
-83 -165 -186 -320 -169 -252 -153 -247 -408 -128 -170 79 -302 150 -360 194
l-23 18 35 22 c19 12 81 41 137 66 240 105 515 170 734 174 l78 1 -7 -27z
m347 12 c210 -28 428 -92 626 -185 56 -27 102 -55 102 -62 0 -21 -95 -78 -314
-189 -193 -98 -200 -101 -236 -90 -21 6 -50 11 -66 11 -31 1 -23 -10 -160 190
-83 121 -180 279 -194 315 l-10 25 70 0 c38 0 120 -7 182 -15z m-219 -170 c17
-27 79 -120 138 -205 59 -85 114 -170 124 -188 19 -40 22 -36 -90 -104 -38
-23 -104 -65 -145 -93 -41 -27 -80 -53 -86 -57 -7 -5 -32 8 -59 29 -26 20 -98
67 -159 106 -110 69 -126 82 -126 103 0 7 62 106 138 222 75 115 150 234 166
263 l28 53 20 -39 c11 -22 34 -62 51 -90z m-1169 -341 c-2 -212 -16 -390 -34
-425 -21 -38 -55 -49 -196 -63 -293 -30 -494 -31 -494 -4 0 6 37 62 81 124 91
126 232 281 356 389 94 82 260 198 277 192 8 -3 11 -66 10 -213z m2280 175
c173 -118 344 -272 462 -419 70 -86 174 -236 174 -250 0 -14 -405 -13 -528 1
-140 15 -153 26 -172 149 -18 118 -26 560 -10 560 7 0 40 -19 74 -41z m-1924
-140 c267 -128 253 -120 262 -157 8 -29 2 -44 -46 -131 -31 -54 -69 -129 -86
-166 l-30 -67 -43 6 c-23 3 -108 9 -189 12 -136 6 -149 9 -169 30 -21 22 -21
26 -10 151 6 70 14 205 17 300 l7 172 51 -31 c28 -16 134 -70 236 -119z m1780
28 c0 -62 7 -200 16 -307 16 -193 16 -194 -4 -211 -17 -13 -54 -17 -199 -21
-98 -3 -184 -7 -191 -9 -8 -3 -26 26 -47 74 -18 42 -57 118 -86 168 -75 131
-76 129 173 252 106 53 222 113 258 135 36 22 68 38 73 35 4 -2 7 -55 7 -116z
m-610 -254 c27 -32 160 -285 160 -303 0 -4 -26 -14 -57 -24 -80 -25 -172 -77
-240 -137 l-57 -50 -17 58 c-28 98 -54 148 -138 259 l-30 41 96 63 c114 76
212 129 235 130 9 0 31 -17 48 -37z m-693 -9 c50 -29 199 -129 222 -150 2 -2
-17 -26 -42 -53 -79 -84 -119 -158 -147 -270 l-12 -44 -56 56 c-64 63 -151
118 -223 142 -27 9 -51 21 -54 26 -7 10 105 233 136 273 20 26 69 53 97 55 8
1 43 -15 79 -35z m368 -319 c45 -75 75 -172 75 -239 0 -48 -13 -85 -55 -156
-10 -17 -13 -39 -9 -71 6 -42 1 -56 -40 -135 -26 -49 -53 -98 -62 -109 -15
-20 -15 -20 -30 -1 -7 11 -35 60 -60 109 -43 83 -46 93 -40 140 7 46 4 54 -26
96 -32 44 -33 49 -33 142 0 90 2 99 38 172 22 44 59 99 88 128 l51 52 33 -34
c19 -19 50 -61 70 -94z m-775 -21 c5 -5 5 -26 -1 -54 -16 -69 -16 -248 0 -303
8 -26 12 -50 9 -52 -3 -3 -25 2 -49 10 -64 23 -183 30 -267 15 -40 -6 -76 -9
-79 -6 -9 9 -20 267 -13 314 4 24 17 54 31 68 l24 26 168 -4 c92 -2 172 -9
177 -14z m1708 -9 c7 -14 19 -28 27 -31 12 -5 15 -29 14 -133 0 -69 -4 -146
-7 -171 -8 -51 9 -48 -177 -35 -77 5 -116 3 -168 -9 -38 -9 -70 -16 -72 -16
-2 0 3 21 11 48 22 71 28 188 14 270 -6 40 -9 76 -5 80 4 4 79 10 168 13 89 3
167 6 173 7 6 1 16 -9 22 -23z m-2187 -1 c9 -11 16 -66 21 -173 4 -86 8 -173
10 -193 l3 -37 -121 -60 c-67 -33 -140 -71 -163 -85 -34 -22 -47 -25 -74 -18
-30 7 -40 23 -147 233 -63 123 -126 242 -139 263 -18 28 -21 40 -12 46 7 4 99
10 204 15 106 4 219 11 252 15 108 13 151 11 166 -6z m2519 -3 c63 -5 184 -13
268 -16 l152 -7 -22 -36 c-13 -19 -75 -139 -138 -266 -145 -290 -121 -278
-335 -170 -82 42 -155 82 -162 88 -8 8 -9 35 -3 96 5 47 9 128 9 180 1 118 13
140 74 140 23 0 94 -4 157 -9z m-1843 -47 c66 -29 153 -110 198 -185 37 -61
42 -84 24 -134 -16 -42 -1 -85 37 -105 33 -19 42 -55 43 -175 1 -103 -3 -105
-93 -57 -42 23 -92 53 -110 67 -34 26 -71 88 -81 138 -6 30 -37 47 -85 47 -25
0 -31 7 -56 68 -27 63 -29 76 -28 197 0 72 5 142 12 157 10 25 13 26 49 16 20
-5 61 -21 90 -34z m1087 28 c2 -4 9 -41 15 -82 13 -94 0 -192 -35 -271 -31
-68 -67 -104 -113 -113 -46 -8 -71 -33 -71 -68 0 -18 -12 -41 -32 -63 -36 -38
-186 -128 -200 -119 -9 6 -11 197 -2 232 4 12 17 25 30 28 49 12 71 86 39 128
-20 27 -19 49 6 97 28 56 94 126 154 164 83 53 195 89 209 67z m-2425 -77 c23
-36 87 -154 141 -262 111 -218 121 -258 78 -304 -50 -53 -348 -254 -467 -313
l-71 -36 0 71 c0 141 43 371 106 564 42 130 142 345 160 345 7 0 31 -29 53
-65z m3742 -41 c61 -128 120 -301 154 -450 25 -115 59 -399 49 -415 -3 -6 -48
13 -102 41 -124 66 -440 277 -454 303 -16 31 -4 77 58 215 111 247 203 412
231 412 7 0 36 -48 64 -106z m-2708 -289 c37 -8 91 -27 119 -42 46 -25 53 -33
62 -73 10 -41 14 -46 61 -62 34 -12 66 -35 97 -69 55 -58 133 -183 123 -199
-4 -6 -52 -10 -120 -10 -109 0 -115 1 -146 27 -27 23 -44 28 -113 32 -96 7
-146 32 -218 109 -50 53 -80 106 -109 191 -26 74 -25 79 19 90 87 23 140 24
225 6z m1777 -6 c47 -10 50 -12 44 -37 -3 -15 -23 -63 -44 -107 -50 -105 -137
-191 -225 -224 -51 -19 -71 -22 -133 -17 -72 7 -74 7 -102 -24 -28 -30 -29
-30 -129 -30 -56 0 -101 2 -101 5 0 11 43 90 82 152 37 58 42 62 85 69 50 7
83 33 83 64 0 47 27 85 78 113 99 54 222 66 362 36z m-2085 -81 c28 -84 85
-186 137 -243 26 -29 48 -55 48 -58 0 -3 -24 -11 -52 -17 -69 -17 -159 -62
-230 -116 -31 -24 -61 -44 -67 -44 -13 0 -120 159 -157 232 -29 57 -25 115 11
148 21 20 268 150 285 150 5 0 16 -24 25 -52z m2333 -19 c137 -70 163 -91 181
-147 14 -40 13 -41 -34 -122 -57 -97 -131 -200 -144 -200 -5 0 -36 22 -68 50
-71 61 -148 103 -230 126 l-62 17 64 68 c60 64 123 172 141 243 3 14 12 26 20
26 8 0 67 -27 132 -61z m-2741 -201 c11 -13 45 -66 76 -118 30 -52 71 -116 91
-142 20 -26 36 -49 36 -52 0 -3 -19 -30 -42 -61 -22 -30 -71 -104 -107 -163
-46 -74 -73 -108 -87 -110 -14 -2 -91 43 -215 126 -107 71 -225 146 -263 167
l-69 38 49 25 c51 26 197 121 372 241 57 39 111 71 121 71 9 0 27 -10 38 -22z
m3230 -111 c92 -63 203 -133 246 -156 42 -24 77 -46 77 -49 0 -4 -40 -30 -88
-59 -48 -28 -159 -101 -246 -161 -140 -97 -163 -110 -190 -105 -43 8 -49 14
-111 117 -31 50 -74 116 -96 147 l-40 56 49 65 c27 36 73 106 102 157 58 101
83 126 111 111 9 -5 93 -61 186 -123z m-1641 -54 c24 -14 44 -28 44 -31 0 -4
10 -23 22 -42 21 -35 32 -127 15 -137 -4 -2 -16 -22 -27 -44 -11 -21 -26 -39
-34 -39 -7 0 -25 -9 -40 -21 -31 -25 -132 -33 -141 -11 -2 6 -20 20 -40 29
-19 9 -35 22 -35 29 0 6 -9 23 -20 37 -14 18 -20 40 -20 77 0 37 6 59 20 77
11 14 20 32 20 39 0 8 18 23 39 34 22 11 42 24 45 28 10 16 108 0 152 -25z
m832 22 c34 -8 84 -26 111 -39 54 -28 161 -121 161 -141 0 -7 -24 -32 -52 -55
-152 -122 -348 -152 -444 -68 -32 28 -37 30 -94 23 -59 -7 -62 -6 -155 46 -52
28 -95 55 -95 59 0 8 89 68 138 94 24 12 37 14 51 6 11 -5 35 -10 55 -10 27 0
39 6 55 29 14 19 41 36 79 49 70 25 108 26 190 7z m-1688 -10 c17 -9 30 -21
30 -27 0 -6 10 -22 22 -35 27 -29 76 -30 111 -3 14 11 29 20 33 20 11 0 202
-109 208 -119 3 -4 -38 -33 -91 -64 -84 -49 -99 -55 -112 -43 -42 37 -102 29
-129 -16 -47 -80 -201 -86 -343 -11 -60 31 -169 113 -177 133 -5 12 105 98
160 126 101 51 231 69 288 39z m-1277 -247 c61 -32 429 -269 456 -294 2 -2 4
-27 4 -56 0 -42 -10 -75 -47 -158 -73 -161 -183 -371 -216 -410 l-29 -35 -59
125 c-97 202 -163 433 -192 660 -11 92 -13 210 -4 210 3 0 43 -19 87 -42z
m934 -76 c50 -32 148 -72 177 -72 33 0 25 -24 -30 -82 -51 -56 -134 -200 -134
-234 0 -30 -27 -35 -76 -14 -63 28 -227 125 -246 148 -30 34 -31 71 -2 126 31
59 118 191 147 223 l20 23 46 -43 c25 -23 69 -57 98 -75z m3235 42 c-9 -200
-68 -472 -142 -659 -47 -120 -112 -255 -121 -255 -17 0 -92 129 -196 337
l-106 212 13 46 c16 55 32 70 228 205 158 109 300 192 317 186 6 -2 9 -32 7
-72z m-818 -18 c30 -46 71 -113 92 -150 34 -63 36 -70 25 -106 -9 -31 -22 -45
-69 -74 -78 -47 -222 -116 -243 -116 -12 0 -23 18 -39 64 -26 80 -78 166 -137
229 -49 52 -47 67 7 67 37 0 154 59 235 119 38 28 71 51 72 51 1 0 27 -38 57
-84z m-1629 -46 c8 -12 -67 -154 -98 -187 -11 -13 -30 -23 -42 -23 -33 0 -54
-21 -73 -75 -35 -99 -167 -165 -328 -165 -45 0 -106 5 -134 11 -44 9 -50 14
-50 35 0 51 67 172 131 239 81 84 126 106 237 112 72 5 91 9 112 28 14 13 34
25 45 28 39 9 194 7 200 -3z m861 2 c6 -4 14 -16 18 -28 10 -31 48 -48 93 -40
109 19 111 19 156 -8 95 -55 187 -182 219 -300 15 -58 10 -62 -80 -72 -113
-12 -193 -1 -276 39 -82 39 -104 64 -117 134 -5 26 -14 52 -19 57 -6 6 -34 13
-63 16 -49 5 -54 8 -85 55 -46 69 -82 141 -75 149 9 9 216 7 229 -2z m-718
-240 c3 -98 2 -102 -23 -123 -28 -25 -42 -78 -27 -106 13 -23 -3 -113 -28
-164 -25 -49 -141 -153 -204 -184 -28 -13 -73 -30 -99 -37 -58 -15 -63 -10
-73 70 -10 84 1 201 26 265 30 80 91 142 148 152 49 8 72 34 72 81 0 17 8 38
18 47 28 25 166 106 177 103 6 -2 11 -47 13 -104z m420 79 c108 -56 136 -78
162 -127 19 -37 37 -55 75 -75 93 -48 148 -165 149 -314 0 -108 -19 -185 -46
-185 -48 0 -171 64 -232 121 -105 98 -137 189 -111 322 6 32 4 42 -16 63 -12
13 -28 24 -36 24 -10 0 -13 24 -13 100 0 55 2 100 5 100 3 0 31 -13 63 -29z
m-172 -128 c28 -50 33 -66 25 -82 -18 -33 -12 -65 18 -98 41 -46 75 -152 68
-217 -11 -104 -61 -210 -146 -306 l-40 -45 -35 40 c-84 95 -127 188 -141 301
-8 75 20 164 65 205 32 30 37 56 19 107 -11 34 -6 48 58 155 l35 59 20 -29
c10 -15 35 -56 54 -90z m-1417 -61 c58 -32 132 -71 165 -85 l59 -27 -8 -63
c-3 -34 -9 -125 -11 -201 -3 -96 -8 -143 -17 -148 -6 -5 -46 -6 -87 -3 -41 3
-176 8 -300 11 -124 4 -231 9 -237 13 -10 5 -6 16 11 42 26 39 131 244 200
392 44 95 57 111 91 120 11 2 22 5 24 6 2 0 51 -25 110 -57z m2849 26 c11 -13
56 -97 100 -188 44 -91 102 -203 129 -250 l50 -85 -126 -8 c-69 -4 -204 -14
-300 -22 -107 -8 -181 -10 -191 -5 -30 16 -38 61 -44 240 l-5 176 67 29 c37
16 110 52 162 82 52 29 104 53 116 53 11 0 30 -10 42 -22z m-779 -168 c52 -14
189 -17 267 -7 59 8 61 8 67 -15 4 -13 7 -91 7 -174 l0 -150 -35 -34 -34 -33
-157 6 c-86 3 -162 11 -167 16 -7 7 -6 33 1 80 16 94 15 183 -3 256 -18 76
-18 78 -1 72 8 -3 33 -11 55 -17z m-1382 -4 c-29 -74 -39 -212 -24 -322 l9
-61 -30 -6 c-17 -3 -89 -9 -160 -13 -130 -7 -130 -7 -154 18 -12 14 -34 31
-47 38 l-24 12 6 152 c3 83 8 159 12 169 7 17 15 18 79 10 86 -10 230 -7 271
6 46 14 68 13 62 -3z m433 -277 c0 -38 71 -175 125 -239 25 -30 45 -57 45 -60
0 -7 -160 -113 -231 -154 -39 -22 -54 -25 -89 -20 -23 4 -53 16 -66 28 -25 22
-144 253 -144 279 0 10 29 26 86 48 82 31 198 103 238 148 22 25 36 14 36 -30z
m515 11 c53 -55 146 -113 223 -140 34 -13 62 -28 62 -35 0 -16 -98 -209 -134
-262 -39 -58 -80 -71 -140 -44 -50 22 -170 97 -229 143 l-37 30 55 61 c55 60
135 202 135 237 0 23 10 50 19 50 4 0 25 -18 46 -40z m-1705 -160 c198 -14
237 -19 261 -39 18 -15 23 -39 40 -211 21 -218 25 -455 8 -465 -12 -8 -143 77
-249 163 -96 76 -259 245 -337 348 -89 118 -136 191 -128 203 8 14 210 14 405
1z m3226 -5 c3 -8 -15 -45 -41 -84 -119 -177 -329 -394 -513 -531 -119 -89
-149 -107 -159 -96 -12 12 -7 385 6 516 11 107 14 117 41 145 30 30 32 30 213
46 247 22 446 24 453 4z m-2421 -102 c25 -54 66 -132 90 -174 25 -42 45 -86
45 -98 0 -18 -33 -38 -212 -126 -117 -58 -242 -122 -278 -144 l-65 -39 -8 136
c-4 75 -14 209 -21 297 -8 88 -12 165 -9 172 13 34 55 44 216 54 139 8 183 12
194 18 2 0 23 -43 48 -96z m1487 70 c196 -8 185 4 170 -201 -7 -86 -12 -213
-13 -282 -1 -69 -4 -135 -7 -147 -7 -22 -7 -22 -57 9 -27 17 -142 76 -255 131
-113 55 -213 106 -222 115 -10 8 -18 27 -18 41 -1 14 37 100 82 190 l83 163
45 -6 c25 -4 111 -9 192 -13z m-764 -235 c61 -40 133 -86 159 -103 32 -20 49
-38 51 -54 3 -17 -30 -73 -116 -200 -65 -97 -138 -211 -162 -253 -24 -43 -47
-78 -50 -78 -4 0 -12 12 -19 26 -14 32 -175 278 -254 389 -49 68 -56 85 -51
110 9 42 24 57 112 108 42 25 102 63 132 85 30 22 62 41 71 41 8 1 66 -32 127
-71z m-494 -231 c59 -64 315 -453 330 -503 9 -31 -10 -33 -154 -18 -197 20
-401 67 -549 126 -111 43 -271 120 -271 129 0 28 126 101 405 236 157 76 192
80 239 30z m1006 -41 c226 -104 400 -201 400 -225 0 -13 -216 -108 -346 -151
-64 -22 -167 -51 -228 -64 -110 -25 -404 -61 -414 -51 -11 11 77 166 190 335
145 217 135 205 183 217 50 12 62 9 215 -61z"/>
<path d="M5536 11436 c-33 -32 -33 -70 -1 -101 31 -32 77 -33 105 -3 26 28 25
61 -2 92 -35 39 -72 43 -102 12z"/>
<path d="M3017 11345 c-59 -40 -67 -49 -67 -78 -1 -82 -62 -147 -139 -147 -28
0 -31 -3 -31 -30 0 -83 -54 -140 -134 -140 l-36 0 0 -45 c0 -53 -28 -114 -66
-144 -20 -15 -41 -21 -80 -21 -52 0 -54 -1 -79 -43 -14 -24 -25 -48 -25 -53 0
-7 80 -48 141 -72 4 -2 49 52 101 120 51 67 136 167 188 222 81 84 142 137
373 319 l27 22 -42 68 c-24 37 -47 67 -53 67 -6 0 -41 -20 -78 -45z"/>
<path d="M5676 11318 c-31 -34 -56 -64 -56 -68 0 -3 51 -44 113 -90 139 -105
358 -322 459 -457 42 -55 81 -109 86 -119 10 -18 13 -18 79 4 101 33 102 34
78 79 -19 36 -23 38 -82 44 -67 6 -103 25 -130 65 -16 25 -16 29 0 72 17 49
12 62 -26 62 -27 0 -89 35 -120 68 -26 27 -29 36 -25 88 l3 58 -66 12 c-117
22 -159 56 -159 130 0 37 -5 46 -37 71 -21 17 -43 33 -50 36 -6 4 -34 -18 -67
-55z"/>
<path d="M6406 10538 c-23 -32 -20 -65 9 -93 27 -28 33 -29 69 -15 72 27 49
130 -29 130 -24 0 -39 -7 -49 -22z"/>
<path d="M2231 10421 c-16 -28 -14 -46 9 -88 43 -80 14 -172 -60 -194 -31 -10
-39 -16 -34 -28 4 -9 9 -48 12 -87 4 -65 2 -73 -23 -102 -15 -18 -33 -32 -40
-32 -26 0 -27 -21 -5 -72 35 -82 17 -135 -65 -194 -27 -19 -29 -27 -33 -94
l-4 -73 32 7 c18 3 49 6 69 6 64 0 70 11 91 160 34 240 65 358 156 593 30 77
54 142 54 146 0 5 -62 35 -141 69 -4 2 -12 -6 -18 -17z"/>
<path d="M6480 10394 c-36 -14 -66 -27 -68 -29 -2 -2 16 -47 39 -101 88 -206
135 -382 170 -633 26 -182 17 -171 132 -171 63 0 67 1 67 23 -1 59 -20 102
-60 135 -75 63 -93 143 -45 201 l26 30 -50 48 c-61 59 -74 105 -45 162 10 20
20 39 22 43 2 3 -12 11 -31 17 -55 18 -70 42 -65 99 3 29 14 63 27 81 l22 31
-23 42 c-13 24 -30 44 -38 45 -8 1 -44 -9 -80 -23z"/>
<path d="M2021 9404 c-26 -34 -27 -68 -1 -94 20 -20 65 -26 86 -12 26 17 36
53 23 83 -22 54 -75 65 -108 23z"/>
<path d="M6699 9402 c-28 -23 -30 -73 -4 -102 39 -43 115 -11 115 50 0 60 -64
90 -111 52z"/>
<path d="M2035 9241 c-45 -7 -52 -22 -40 -96 5 -37 10 -43 35 -49 68 -13 90
-129 50 -258 -11 -34 -20 -64 -20 -65 0 -2 14 -3 30 -3 67 0 87 -70 55 -189
-8 -30 -12 -58 -9 -63 3 -4 21 -8 40 -8 21 0 42 -8 55 -21 17 -17 20 -29 16
-77 -3 -32 -8 -70 -12 -86 -8 -29 18 -96 36 -96 16 0 139 93 139 105 0 6 -4
15 -9 20 -13 14 -79 169 -108 250 -57 166 -104 373 -117 520 -12 126 -12 125
-59 124 -23 -1 -60 -5 -82 -8z"/>
<path d="M6636 9198 c-46 -353 -90 -522 -197 -762 l-48 -109 56 -64 c31 -35
61 -62 67 -60 6 2 22 24 35 49 l25 45 -22 28 c-38 48 -22 115 42 177 l37 36
-21 35 c-32 54 -8 128 55 167 33 20 34 23 20 43 -38 54 -6 160 67 219 44 36
46 41 53 100 3 35 8 75 11 90 6 31 0 34 -103 43 l-71 7 -6 -44z"/>
<path d="M6370 8190 c-41 -41 -14 -120 39 -120 42 0 74 30 74 70 0 61 -71 92
-113 50z"/>
<path d="M2448 8074 c-32 -25 -58 -49 -58 -53 0 -5 10 -21 21 -36 19 -24 27
-26 63 -21 77 11 136 -47 136 -136 l0 -49 33 6 c65 12 130 -60 143 -158 l6
-43 52 4 c97 8 146 -40 146 -140 0 -52 1 -54 48 -85 26 -18 51 -33 55 -33 9 0
55 74 73 116 l14 33 -113 85 c-187 142 -330 285 -489 494 -27 34 -54 62 -60
62 -7 -1 -39 -21 -70 -46z"/>
<path d="M6179 8003 c-111 -145 -298 -330 -441 -438 -65 -48 -118 -94 -118
-103 0 -29 44 -152 54 -152 21 0 87 54 91 74 2 12 7 34 10 50 8 37 75 106 103
106 15 0 27 13 41 45 21 48 64 81 117 91 28 5 33 11 38 44 7 43 45 94 87 115
15 8 52 15 81 15 49 0 55 3 75 33 12 17 34 49 49 70 l28 38 -59 59 c-33 33
-63 60 -66 60 -4 0 -45 -48 -90 -107z"/>
<path d="M3200 7410 c-28 -28 -27 -84 2 -104 51 -36 108 -7 108 54 0 29 -6 43
-22 54 -31 22 -64 20 -88 -4z"/>
<path d="M5497 7373 c-28 -31 -30 -66 -7 -96 21 -27 61 -36 87 -19 19 12 34
61 27 88 -11 44 -77 60 -107 27z"/>
<path d="M3338 7291 c-21 -38 -38 -73 -38 -79 0 -5 22 -18 48 -29 47 -20 49
-20 83 -2 19 10 54 18 78 19 39 0 49 -5 82 -40 l38 -40 33 20 c58 35 134 19
179 -39 25 -31 25 -31 58 -15 28 14 40 15 72 5 48 -14 89 -49 114 -94 21 -40
42 -47 146 -47 l69 0 0 54 c0 29 -3 67 -6 85 -7 34 1 31 -164 51 -220 27 -440
88 -649 179 -50 23 -95 41 -99 41 -4 0 -24 -31 -44 -69z"/>
<path d="M5285 7304 c-224 -91 -469 -155 -653 -170 -113 -9 -116 -13 -106
-105 l9 -74 48 -3 c46 -3 50 -1 90 42 62 67 132 84 198 50 29 -14 32 -14 45 3
7 10 14 21 14 24 0 4 15 14 34 23 43 20 108 21 147 0 17 -8 32 -14 34 -12 1 2
10 20 20 41 10 21 27 43 38 49 31 16 94 11 130 -10 32 -18 34 -18 75 -1 23 10
45 25 48 34 7 18 -36 147 -51 151 -5 2 -59 -17 -120 -42z"/>
<path d="M4380 7097 c-14 -7 -31 -25 -38 -40 -11 -22 -10 -31 2 -55 37 -71
137 -50 136 28 -1 29 -16 52 -47 68 -26 14 -22 15 -53 -1z"/>
<path d="M3324 6738 c29 -161 33 -585 6 -736 -6 -35 -8 -67 -5 -72 9 -15 77
24 135 77 l52 48 -46 94 c-69 142 -59 156 29 41 23 -30 68 -99 100 -153 32
-54 62 -100 66 -102 9 -6 -3 43 -38 150 -30 91 -83 206 -144 314 -33 58 -38
71 -21 62 46 -24 131 -135 181 -234 55 -110 62 -108 31 11 -39 156 -94 260
-189 365 l-53 57 48 0 c50 0 120 26 141 51 9 12 -1 14 -70 15 -56 1 -101 8
-141 23 -82 29 -90 28 -82 -11z"/>
<path d="M5500 6569 c0 -68 3 -148 7 -177 l6 -52 32 6 c39 7 65 -15 65 -56 0
-35 -23 -60 -56 -60 -20 0 -24 -5 -24 -29 0 -50 8 -60 45 -54 27 4 35 1 45
-16 20 -39 9 -75 -27 -86 -35 -10 -40 -25 -23 -70 8 -20 15 -25 30 -20 31 10
59 -3 75 -36 15 -28 14 -31 -9 -54 -14 -14 -32 -25 -41 -25 -19 0 -18 -13 3
-70 17 -44 19 -45 62 -45 39 0 46 -4 58 -28 11 -23 11 -34 2 -58 -7 -16 -18
-29 -26 -29 -25 0 -26 -22 -3 -71 17 -37 27 -48 38 -43 61 26 111 5 111 -46 0
-27 -27 -60 -48 -60 -7 0 -12 -5 -12 -11 0 -8 41 -74 66 -107 1 -2 14 4 28 13
31 21 63 12 78 -21 10 -20 8 -30 -11 -55 -20 -27 -22 -34 -11 -55 7 -13 23
-33 35 -44 19 -18 26 -20 42 -9 28 17 71 3 85 -27 10 -21 9 -31 -7 -59 -20
-39 -22 -33 49 -115 21 -25 53 -74 70 -110 29 -61 31 -73 35 -199 4 -158 -6
-288 -21 -273 -7 7 -25 3 -56 -11 -55 -24 -163 -28 -204 -6 -25 13 -22 14 50
15 83 0 129 17 156 56 18 25 20 46 7 66 -6 10 -18 8 -56 -12 -36 -20 -63 -26
-107 -26 -65 0 -145 17 -154 32 -4 6 2 8 14 4 44 -14 158 -9 193 9 61 31 79
54 79 101 0 24 -4 45 -10 49 -5 3 -26 -4 -47 -15 -40 -21 -126 -27 -153 -10
-12 8 -9 10 11 10 38 0 89 19 127 47 42 32 42 67 -1 171 -38 90 -69 136 -181
277 -328 413 -476 832 -534 1519 l-7 89 -85 -138 c-129 -209 -198 -270 -316
-282 -42 -5 -52 -9 -44 -19 6 -7 32 -15 58 -19 65 -8 158 22 227 74 65 49 72
36 25 -45 -65 -114 -190 -174 -315 -151 l-40 8 37 -21 c83 -45 187 -33 287 34
28 19 51 30 51 25 0 -6 -25 -37 -56 -69 -65 -69 -140 -110 -198 -110 -30 0
-37 -3 -26 -10 23 -15 94 -12 147 6 26 9 85 40 130 70 44 30 84 54 87 54 11 0
-24 -62 -65 -116 -50 -65 -110 -108 -183 -129 -71 -21 -62 -40 17 -38 62 2
146 36 218 89 27 20 49 31 49 25 0 -28 -44 -138 -69 -175 -16 -23 -65 -81
-110 -131 -98 -108 -135 -176 -126 -229 4 -20 10 -36 14 -36 4 0 12 21 19 46
17 62 99 143 216 212 48 29 90 51 93 49 2 -3 -11 -29 -30 -58 -51 -81 -102
-186 -127 -264 -19 -58 -23 -91 -22 -195 1 -69 5 -138 10 -155 7 -25 10 -17
16 55 10 120 24 186 57 258 30 67 137 237 145 230 2 -3 -9 -37 -25 -76 -49
-119 -64 -207 -58 -345 5 -120 21 -201 55 -279 l17 -40 1 136 c2 145 20 230
69 326 49 94 54 91 33 -16 -27 -137 -21 -411 11 -527 22 -79 51 -160 56 -155
2 2 -3 37 -10 78 -28 154 -14 414 28 508 11 26 12 24 14 -23 11 -202 32 -405
42 -405 3 0 18 46 32 103 30 114 53 177 67 177 5 0 1 -30 -9 -67 -26 -93 -49
-228 -49 -288 0 -61 2 -59 95 89 61 98 70 107 78 88 17 -37 -9 -128 -84 -291
-79 -173 -118 -270 -160 -408 -33 -109 -73 -297 -66 -315 2 -7 18 15 36 49 50
100 226 351 237 340 2 -2 -27 -71 -65 -153 -38 -82 -80 -182 -95 -223 -28 -77
-46 -191 -30 -191 5 0 28 38 52 84 54 107 122 196 207 274 59 54 129 92 143
77 3 -2 -11 -16 -29 -32 -145 -117 -257 -284 -320 -475 l-29 -90 15 -107 c20
-133 54 -327 62 -348 4 -9 14 30 24 88 18 107 79 322 104 368 l14 26 1 -25 c0
-14 -7 -65 -15 -115 -17 -107 -20 -338 -4 -386 19 -55 31 -65 45 -37 37 72 83
291 84 396 0 28 4 52 9 52 21 0 28 -218 10 -330 -5 -36 -26 -105 -45 -153
l-36 -89 26 -39 c15 -21 31 -39 36 -39 20 0 91 171 131 315 23 83 46 155 51
160 13 13 3 -128 -17 -231 -8 -42 -31 -112 -50 -157 -20 -45 -39 -87 -41 -94
-4 -8 5 -9 36 -2 61 14 116 45 173 97 49 46 147 183 147 206 0 7 -21 28 -46
47 -62 45 -147 155 -190 244 -35 74 -78 222 -72 251 2 8 26 -26 53 -77 79
-145 141 -235 218 -310 73 -73 120 -104 138 -93 24 15 -38 154 -107 239 -68
84 -114 187 -121 273 -6 73 3 162 16 162 5 0 11 -29 14 -64 7 -79 28 -133 83
-216 40 -61 164 -194 164 -176 0 4 -15 49 -34 100 -41 108 -62 207 -71 332
l-7 92 -47 31 c-67 43 -134 118 -171 191 -17 34 -30 66 -28 70 3 8 176 -93
240 -140 35 -26 38 -25 38 8 0 15 9 93 21 175 18 124 19 152 9 178 -22 53 -84
141 -145 207 -32 34 -55 65 -52 69 15 14 77 -26 134 -86 l63 -65 -26 93 c-14
51 -39 127 -55 169 -37 98 -37 108 -1 87 55 -33 101 -109 220 -365 l21 -45 0
37 c1 55 -37 266 -55 304 -25 53 -139 140 -382 293 -29 19 -51 36 -48 38 8 8
108 -28 181 -66 39 -20 105 -64 148 -99 53 -43 77 -58 77 -46 0 9 -19 73 -42
143 -39 117 -46 130 -93 176 -60 58 -160 114 -289 161 -69 25 -84 33 -59 34
47 0 83 47 83 110 0 27 -4 59 -9 73 -9 23 -144 120 -215 154 -44 20 -31 33 34
33 58 0 161 25 208 49 40 21 42 20 -48 45 -77 22 -148 65 -225 138 -65 61 -66
62 -43 74 13 6 42 17 65 24 56 17 109 62 123 106 7 19 10 38 7 40 -2 3 -21 -6
-41 -20 -83 -56 -170 -60 -271 -11 l-60 29 86 7 c91 8 141 26 159 58 17 34 11
39 -27 25 -41 -14 -123 -17 -163 -4 -27 8 -24 10 46 29 91 24 144 88 143 171
l0 45 -17 -25 c-50 -74 -144 -116 -208 -92 l-29 10 28 1 c59 2 117 24 142 53
25 29 40 81 33 115 -3 14 -8 10 -27 -21 -68 -109 -206 -98 -351 29 -30 27 -63
55 -72 63 -17 14 -18 8 -18 -109z m690 -2682 c0 -72 22 -141 59 -188 36 -44
39 -64 12 -79 -16 -8 -24 -4 -47 23 -48 56 -64 104 -64 193 0 75 9 104 32 104
4 0 8 -24 8 -53z m-103 -4 c-31 -71 -35 -216 -8 -303 l20 -65 -20 -20 c-17
-17 -21 -18 -29 -5 -19 30 -32 126 -28 205 4 68 10 95 41 158 39 83 60 107 24
30z"/>
<path d="M3549 5864 c-33 -40 -157 -116 -220 -135 -57 -17 -69 -25 -78 -50 -5
-15 -7 -31 -3 -33 15 -9 106 15 167 44 95 45 165 104 165 138 0 41 -14 57 -31
36z"/>
<path d="M2994 3045 l-37 -56 49 -51 c111 -114 259 -184 452 -213 102 -16 397
-21 406 -7 2 4 -44 18 -102 31 -328 72 -500 150 -684 311 l-47 41 -37 -56z"/>
<path d="M6437 2876 c-95 -141 -148 -189 -235 -216 -35 -11 -75 -20 -88 -20
-34 0 -30 -11 19 -66 l43 -47 60 32 c75 40 178 127 255 216 l60 69 -3 71 c-4
103 -19 98 -111 -39z"/>
<path d="M2865 2913 l-39 -26 40 -35 c125 -108 365 -243 539 -301 96 -32 525
-122 525 -110 0 4 -17 21 -37 38 -48 39 -144 76 -349 135 -335 95 -459 151
-568 258 -38 38 -69 68 -70 68 -1 0 -19 -12 -41 -27z"/>
<path d="M6452 2646 c-46 -43 -117 -99 -158 -125 l-75 -49 27 -21 c15 -11 31
-21 37 -21 35 0 165 78 222 133 l63 62 -17 49 -17 49 -82 -77z"/>
<path d="M6545 2504 c-22 -19 -76 -55 -119 -80 l-79 -46 24 -20 c35 -28 349
-181 357 -174 20 21 1 86 -63 216 -38 77 -72 140 -75 140 -3 -1 -23 -16 -45
-36z"/>
<path d="M4498 1818 c-23 -19 -49 -64 -41 -71 3 -4 39 -7 79 -7 183 0 335 -75
447 -220 l27 -35 25 28 c25 28 25 29 8 59 -27 46 -118 123 -193 162 -60 32
-274 96 -319 96 -9 0 -24 -6 -33 -12z"/>
<path d="M3787 921 c-24 -59 -21 -86 14 -126 33 -38 66 -58 129 -80 34 -12 41
-11 70 7 l33 20 -54 29 c-68 38 -124 92 -153 148 l-23 44 -16 -42z"/>
<path d="M3711 739 c-18 -51 -13 -69 28 -110 45 -45 65 -48 111 -16 45 30 46
40 5 60 -19 9 -55 35 -79 57 -24 22 -46 40 -49 40 -3 0 -10 -14 -16 -31z"/>
</g>
</svg>
