<?xml version="1.0" standalone="no"?>
<!DOCTYPE svg PUBLIC "-//W3C//DTD SVG 20010904//EN"
 "http://www.w3.org/TR/2001/REC-SVG-20010904/DTD/svg10.dtd">
<svg version="1.0" xmlns="http://www.w3.org/2000/svg"
 width="691.000000pt" height="691.000000pt" viewBox="0 0 691.000000 691.000000"
 preserveAspectRatio="xMidYMid meet">
<metadata>
Created by potrace 1.16, written by Peter Selinger 2001-2019
</metadata>
<g transform="translate(0.000000,691.000000) scale(0.100000,-0.100000)"
fill="#000000" stroke="none">
<path d="M3280 6298 c-392 -19 -813 -146 -1140 -343 -189 -115 -279 -181 -440
-326 -421 -380 -722 -949 -798 -1509 l-17 -125 -240 -5 c-235 -5 -241 -6 -290
-31 -57 -30 -109 -92 -125 -147 -6 -23 -10 -199 -10 -458 l0 -420 26 -53 c31
-61 96 -114 161 -130 25 -7 170 -11 362 -11 227 0 321 -3 321 -11 0 -27 131
-267 215 -394 354 -532 890 -905 1515 -1054 150 -36 338 -62 435 -59 49 1 56
3 25 5 -91 7 -358 55 -463 84 -714 194 -1314 703 -1622 1377 l-24 52 2285 0
c1825 0 2284 -3 2278 -12 -17 -30 -147 -224 -156 -233 -7 -7 -8 2 -3 25 5 27
4 32 -5 20 -9 -12 -11 -6 -7 25 3 22 8 48 12 58 4 9 3 17 -3 17 -12 0 -36
-105 -29 -125 11 -27 -6 -23 -38 11 -18 18 -38 34 -44 34 -6 0 4 -14 24 -31
19 -17 35 -35 35 -40 0 -15 -104 39 -149 77 -26 22 -39 30 -33 18 17 -32 43
-51 117 -84 52 -24 66 -33 55 -40 -13 -8 -12 -10 2 -10 20 0 32 -16 22 -31 -5
-8 -9 -7 -15 4 -5 8 -24 19 -42 23 -31 7 -31 8 -7 14 19 5 10 9 -40 16 -71 10
-166 2 -184 -16 -8 -9 3 -10 46 -5 69 9 165 -3 133 -16 -11 -4 -49 -8 -85 -8
-46 -1 -61 -4 -50 -11 8 -5 29 -10 45 -11 20 -1 10 -5 -32 -15 -71 -15 -172
-56 -155 -62 7 -2 28 2 48 8 52 17 53 5 1 -18 -44 -19 -82 -55 -41 -37 41 16
72 24 159 39 150 25 155 26 155 16 0 -4 -26 -12 -57 -15 -85 -10 -216 -53
-278 -92 -30 -19 -55 -39 -55 -44 0 -12 6 -11 42 7 28 15 30 15 25 0 -8 -19 0
-20 33 -1 34 19 45 19 29 -2 -13 -15 -12 -15 17 0 25 13 178 57 198 57 9 0
-23 -50 -52 -82 -14 -15 -59 -42 -101 -60 -67 -28 -87 -32 -166 -32 -49 1
-121 4 -160 8 -62 7 -78 5 -140 -19 -76 -29 -115 -58 -115 -86 0 -16 2 -17 28
-3 34 17 46 18 39 1 -3 -9 10 -13 49 -15 29 -1 63 -7 76 -12 16 -6 7 -7 -33
-3 -57 5 -129 -10 -129 -28 0 -14 23 -11 49 7 26 19 108 14 183 -11 24 -8 32
-12 18 -10 -14 3 -50 8 -80 10 -74 7 -31 -8 80 -26 l85 -14 -180 -6 c-202 -7
-242 -17 -337 -81 -77 -52 -92 -76 -27 -42 17 8 36 13 43 11 7 -3 23 1 37 9
13 7 31 13 39 13 8 0 -10 -12 -40 -27 -30 -15 -59 -37 -64 -48 -8 -17 -22 -23
-60 -27 -28 -3 -67 -8 -86 -11 -35 -6 -35 -6 -5 4 17 6 53 15 80 20 l50 9 -61
-5 c-74 -6 -202 -45 -260 -79 -41 -24 -89 -73 -80 -82 2 -3 91 0 198 6 179 9
268 6 392 -15 39 -6 39 -6 15 -20 -28 -16 -42 -18 -34 -5 3 6 -16 13 -42 18
-57 10 -368 11 -503 2 -52 -4 -81 -3 -65 1 l30 8 -37 1 c-70 2 -273 -64 -345
-112 -36 -24 -48 -73 -15 -63 42 13 385 25 505 18 131 -7 129 -7 -138 -14
-148 -4 -299 -10 -335 -12 -36 -3 -67 -5 -70 -6 -3 0 -11 -12 -17 -28 -7 -15
-26 -42 -42 -59 -18 -20 -25 -35 -19 -39 7 -4 5 -10 -5 -16 -23 -13 -49 -70
-37 -82 6 -6 2 -13 -12 -20 -39 -20 -33 -35 12 -29 37 5 155 -8 220 -25 14 -3
-19 -9 -80 -12 -114 -7 -169 -25 -226 -77 -37 -33 -54 -83 -28 -83 13 0 11 -5
-7 -21 l-24 -21 25 7 c14 3 67 17 119 30 128 34 143 31 39 -9 -111 -42 -218
-115 -218 -149 0 -6 -6 -18 -14 -26 -14 -16 -19 -39 -17 -73 0 -9 14 -20 29
-26 16 -5 36 -17 45 -27 20 -19 50 -13 41 8 -3 8 6 21 20 31 35 23 43 20 19
-7 -21 -23 -39 -77 -26 -77 5 0 28 28 52 61 24 33 45 58 47 56 2 -2 0 -18 -5
-35 -13 -45 5 -40 20 6 12 35 13 36 19 12 6 -22 8 -20 20 22 14 53 32 56 23 4
-3 -19 -1 -36 6 -40 14 -9 51 11 51 29 0 7 4 17 10 20 7 4 7 -3 0 -20 -14 -38
-13 -60 3 -47 6 6 29 13 50 17 32 6 42 15 63 54 13 25 22 36 19 23 -6 -20 -4
-22 27 -19 18 2 44 8 58 14 39 16 117 33 156 33 31 0 46 11 123 88 48 48 108
116 132 151 115 166 143 211 176 275 19 37 37 66 39 63 8 -8 -44 -154 -90
-252 -24 -49 -66 -127 -94 -172 -65 -104 -68 -120 -14 -86 42 27 61 46 57 54
-3 3 12 26 33 50 48 56 92 119 127 187 15 29 30 51 32 48 11 -11 -81 -166
-133 -223 -53 -60 -63 -83 -20 -46 18 16 18 15 -2 -11 -12 -16 -22 -32 -22
-37 0 -14 73 21 148 72 53 36 86 51 120 55 79 9 85 12 135 58 26 25 53 43 60
41 6 -2 30 12 52 31 22 20 32 33 22 30 -15 -5 -16 -3 -6 17 16 30 109 170 122
182 13 14 -47 -97 -77 -142 -14 -20 -23 -39 -21 -42 6 -6 118 111 156 164 33
46 108 199 129 263 7 23 15 40 18 38 4 -4 -23 -120 -35 -152 -3 -8 -1 -14 4
-14 15 0 133 203 149 255 7 27 14 62 13 79 -1 26 -2 24 -10 -13 -9 -46 -40
-134 -45 -128 -2 1 6 48 17 102 18 83 20 121 15 222 -3 70 -2 125 4 128 5 3 9
-47 9 -120 1 -80 5 -134 13 -148 24 -43 35 -85 30 -118 l-5 -34 26 26 c34 34
47 69 47 132 0 37 3 48 10 37 5 -8 10 -32 10 -54 0 -33 2 -37 15 -26 8 7 17
27 21 46 7 37 24 56 24 27 0 -15 2 -14 16 5 15 21 14 33 -12 162 -15 77 -31
134 -35 128 -12 -18 -19 -6 -35 58 -13 47 -13 58 -2 65 9 6 15 1 20 -14 6 -21
6 -21 8 3 1 23 2 23 10 5 14 -34 23 -59 25 -75 5 -40 18 -86 27 -98 6 -6 8
-35 6 -62 -3 -28 -2 -50 3 -50 4 0 10 26 14 58 8 73 13 86 15 42 l2 -35 10 28
c7 19 7 32 1 38 -12 12 -4 61 8 53 16 -9 10 16 -21 86 -16 38 -30 79 -29 92 1
21 2 21 14 -7 17 -36 19 -20 4 24 -6 18 -9 34 -6 37 9 9 36 -51 49 -108 6 -29
13 -47 16 -40 2 8 -1 34 -8 58 -7 25 -11 47 -8 49 2 2 26 -2 53 -10 78 -24 97
-16 22 9 -86 29 -99 41 -55 51 l33 9 -40 4 c-41 3 -75 22 -41 22 43 0 166 98
166 133 0 6 -14 -5 -31 -26 -28 -35 -104 -87 -125 -87 -5 0 7 14 26 29 19 16
32 33 28 36 -4 4 -19 -5 -35 -19 -25 -24 -43 -33 -43 -22 0 3 19 45 43 93 24
49 52 117 63 151 l19 61 380 3 c423 3 417 2 491 75 74 72 74 67 74 549 l0 432
-28 53 c-30 59 -95 111 -160 129 -21 5 -150 10 -293 10 l-257 0 -7 68 c-26
253 -121 568 -249 827 -296 597 -775 1030 -1396 1260 -320 119 -678 171 -1040
153z m532 -128 c263 -40 476 -108 728 -233 427 -211 767 -519 1018 -919 23
-37 42 -69 42 -72 0 -2 16 -33 36 -67 112 -200 216 -506 262 -774 l19 -110
-1234 -3 c-678 -1 -1788 -1 -2466 0 l-1233 3 22 135 c27 161 69 322 118 454
42 112 145 330 191 401 17 28 44 70 60 95 102 161 288 372 461 521 183 157
535 368 724 433 25 8 70 24 100 36 136 51 406 107 580 120 160 11 421 2 572
-20z m-3070 -2458 c76 -37 120 -82 157 -162 22 -47 26 -69 26 -145 0 -83 -3
-95 -34 -153 -39 -71 -79 -110 -154 -149 -46 -24 -65 -28 -174 -31 l-123 -4 0
342 0 342 118 -4 c109 -3 122 -5 184 -36z m328 29 c0 -5 34 -89 76 -187 41
-99 96 -228 121 -289 26 -60 49 -114 53 -118 4 -4 65 129 137 295 121 283 131
303 156 306 l27 3 0 -340 c0 -334 0 -341 -20 -341 -20 0 -20 7 -20 293 l-1
292 -80 -190 c-45 -104 -100 -235 -124 -290 -36 -86 -45 -100 -67 -103 -14 -2
-28 3 -31 10 -3 7 -60 139 -126 293 l-120 280 -1 -292 c0 -286 0 -293 -20
-293 -20 0 -20 7 -20 340 l0 340 30 0 c17 0 30 -4 30 -9z m890 -196 l0 -205
205 0 205 0 0 205 c0 198 1 205 20 205 20 0 20 -7 20 -340 0 -333 0 -340 -20
-340 -19 0 -20 7 -20 115 l0 115 -205 0 -205 0 0 -115 c0 -108 -1 -115 -20
-115 -20 0 -20 7 -20 340 0 333 0 340 20 340 19 0 20 -7 20 -205z m2160 -140
c0 -328 0 -335 -20 -335 -17 0 -20 7 -21 48 -1 26 -1 53 0 60 3 18 -1 16 -55
-36 -97 -93 -229 -98 -326 -12 -175 153 -69 439 163 440 72 0 150 -38 190 -93
l29 -40 0 151 c0 145 1 152 20 152 20 0 20 -7 20 -335z m1850 0 c0 -328 0
-335 -20 -335 -15 0 -20 7 -20 29 0 16 -3 42 -6 58 l-6 30 -40 -43 c-114 -124
-321 -87 -394 70 -85 183 68 382 270 352 53 -8 127 -55 155 -99 l21 -32 0 153
c0 145 1 152 20 152 20 0 20 -7 20 -335z m-3169 150 c41 -14 92 -55 124 -100
13 -18 14 -14 15 48 0 60 2 67 20 67 19 0 20 -7 20 -250 0 -243 -1 -250 -20
-250 -18 0 -20 7 -20 67 0 67 0 67 -17 43 -108 -155 -338 -142 -426 24 -32 61
-31 175 3 235 61 108 185 155 301 116z m289 -50 l0 -66 53 53 c34 35 66 58 93
66 120 35 237 -14 288 -122 24 -52 26 -64 26 -210 0 -149 -1 -156 -20 -156
-19 0 -20 7 -20 136 0 163 -11 205 -65 259 -61 62 -135 78 -216 50 -57 -20
-86 -49 -115 -110 -22 -45 -24 -64 -24 -192 0 -136 -1 -143 -20 -143 -19 0
-20 7 -20 250 0 243 1 250 20 250 18 0 20 -7 20 -65z m1140 36 c0 -39 13 -46
36 -20 64 71 186 62 239 -17 l21 -31 16 27 c21 37 59 61 107 67 52 7 83 -1
121 -33 53 -45 60 -76 60 -280 0 -177 -1 -184 -20 -184 -19 0 -20 7 -20 181 0
196 -4 213 -58 253 -33 25 -107 26 -144 2 -50 -33 -58 -67 -58 -260 0 -169 -1
-176 -20 -176 -19 0 -20 7 -20 176 0 140 -3 183 -16 209 -41 87 -161 96 -219
17 -18 -24 -20 -46 -23 -214 -3 -178 -4 -188 -23 -188 -18 0 -19 9 -19 250 0
243 1 250 20 250 15 0 20 -7 20 -29z m1005 8 c24 -11 62 -41 85 -65 l40 -44 0
65 c0 58 2 65 20 65 19 0 20 -7 20 -250 0 -243 -1 -250 -20 -250 -18 0 -20 7
-20 68 l0 67 -18 -26 c-111 -167 -365 -135 -437 55 -33 86 -6 204 62 268 70
66 184 87 268 47z m1147 5 c49 -16 128 -77 128 -98 0 -7 -70 -79 -155 -160
-85 -81 -155 -151 -155 -156 0 -16 72 -32 116 -26 54 7 99 29 140 68 28 26 32
27 44 13 11 -13 9 -20 -16 -46 -41 -44 -99 -70 -163 -76 -150 -14 -267 84
-279 232 -4 56 -1 72 22 119 59 120 190 174 318 130z m-707 -987 c-2 -44 -95
-219 -200 -377 -46 -69 -92 -134 -102 -145 -10 -11 -50 -59 -90 -105 -208
-247 -467 -444 -913 -692 -74 -41 -157 -88 -185 -103 -144 -80 -175 -96 -175
-92 0 3 19 16 43 30 289 165 495 288 575 343 35 24 67 44 72 44 4 0 10 3 12 8
2 4 57 51 123 104 283 227 507 484 695 798 61 101 138 220 143 220 2 0 2 -15
2 -33z m-1054 -1114 c7 -7 -73 -10 -233 -10 -134 0 -295 -3 -358 -6 -121 -6
-102 3 45 23 90 11 533 6 546 -7z m-190 -34 c57 -5 108 -14 113 -20 6 -6 5 -9
-3 -9 -8 0 -19 -7 -25 -15 -10 -14 -21 -14 -86 -4 -41 6 -153 15 -250 19
l-175 8 230 -3 c127 -2 241 -7 255 -11 18 -5 22 -4 15 4 -19 20 -269 32 -450
22 -166 -9 -220 -7 -133 4 116 16 380 19 509 5z"/>
<path d="M480 3410 l0 -302 93 4 c110 5 166 27 227 88 61 61 85 119 85 210 0
90 -24 150 -83 207 -66 64 -123 86 -229 91 l-93 4 0 -302z"/>
<path d="M3801 3518 c-53 -15 -102 -58 -127 -113 -30 -63 -30 -107 0 -171 56
-121 201 -158 317 -82 40 27 89 117 89 163 0 81 -49 156 -124 191 -54 25 -99
29 -155 12z"/>
<path d="M5660 3521 c-81 -25 -130 -75 -151 -154 -43 -160 133 -306 286 -238
27 12 58 29 69 39 27 24 66 111 66 148 0 135 -142 244 -270 205z"/>
<path d="M2665 3523 c-86 -24 -162 -133 -152 -218 6 -60 50 -130 100 -162 56
-36 152 -38 214 -5 144 76 148 275 8 358 -44 25 -128 39 -170 27z"/>
<path d="M5074 3517 c-56 -22 -96 -60 -120 -111 -30 -64 -30 -108 0 -172 51
-110 170 -152 281 -100 59 27 77 46 104 106 33 72 24 140 -26 208 -47 63 -168
98 -239 69z"/>
<path d="M6202 3509 c-73 -37 -122 -116 -122 -195 0 -36 31 -103 57 -127 20
-18 23 -16 162 119 77 75 141 142 141 149 0 7 -19 25 -41 40 -59 38 -138 44
-197 14z"/>
</g>
</svg>
